<svg width="21" height="41" viewBox="0 0 21 41" fill="none" xmlns="http://www.w3.org/2000/svg">
<path id="Vector" d="M5.25405 39.056L5.25406 39.056L5.25808 39.0517L18.1502 25.1982C19.3827 23.8738 20 22.1376 20 20.4161C20 18.6946 19.3827 16.9585 18.1502 15.6341L5.25808 1.78056C4.28915 0.739376 2.66694 0.739376 1.69802 1.78056C0.767328 2.78065 0.767328 4.39523 1.69802 5.39532L14.5901 19.2488C15.182 19.8848 15.182 20.9474 14.5901 21.5834L1.69802 35.4369C0.767328 36.437 0.767328 38.0516 1.69802 39.0517L1.698 39.0517L1.70204 39.056C2.16209 39.5445 2.7986 39.833 3.47805 39.833C4.15749 39.833 4.794 39.5445 5.25405 39.056Z" fill="white" stroke="white" stroke-width="2"/>
</svg>
