<svg width="69" height="44" viewBox="0 0 69 44" fill="none" xmlns="http://www.w3.org/2000/svg">
<g id="Group 427321605">
<path id="Vector" d="M6.44222 10.4842L67.7926 0.0137877C67.9904 -0.0185963 68.1934 0.00635183 68.3772 0.0856183C68.5609 0.164885 68.7176 0.295071 68.8281 0.460449C68.9386 0.625828 68.9983 0.81931 69 1.01752C69.0016 1.21573 68.9452 1.41018 68.8375 1.57736L49.1122 31.8926C47.7165 33.6265 45.9458 35.0293 43.93 35.9981C41.9143 36.9669 39.7047 37.477 37.4635 37.4911C35.2223 37.5051 33.0063 37.0227 30.9783 36.0793C28.9503 35.1359 27.1618 33.7554 25.7439 32.0392C25.1971 31.3776 24.8001 30.6077 24.5798 29.7815C24.3595 28.9553 24.321 28.0919 24.4669 27.2498C24.6127 26.4076 24.9396 25.6061 25.4254 24.8995C25.9112 24.1928 26.5446 23.5974 27.283 23.1533L48.5121 10.3585L18.7617 23.0556C16.9929 23.8283 15.1096 24.3139 13.1844 24.4935C12.7255 24.5354 12.2525 24.5564 11.7724 24.5564C9.67449 24.6791 7.57747 24.3008 5.65854 23.4535C4.89607 23.0905 -0.264711 20.6195 0.0106247 16.4732C0.102887 15.6546 0.359644 14.8624 0.765779 14.1432C1.17191 13.424 1.71927 12.7923 2.37571 12.2851C3.5444 11.3368 4.94847 10.715 6.44222 10.4842Z" fill="white"/>
<path id="Vector_2" d="M13.9272 24.0532C16.7159 30.0493 19.4975 36.6177 22.2862 42.5928L32.9748 33.0996" stroke="white" stroke-width="2" stroke-linecap="round" stroke-linejoin="round"/>
<path id="Vector_3" d="M25.0308 28.938L20.3501 38.3474" stroke="white" stroke-width="2" stroke-linecap="round" stroke-linejoin="round"/>
</g>
</svg>
