<svg width="50" height="50" viewBox="0 0 50 50" fill="none" xmlns="http://www.w3.org/2000/svg">
<g id="&#240;&#159;&#166;&#134; icon &#34;whatsapp&#34;">
<path id="Vector" d="M49.9589 23.5255C49.109 9.02592 35.9357 -2.14883 20.7627 0.351118C10.314 2.07608 1.94013 10.5509 0.31534 21.0006C-0.634536 27.0505 0.61535 32.7753 3.33999 37.5003L1.11526 45.7751C0.615325 47.65 2.34005 49.35 4.18981 48.825L12.3388 46.5751C16.0383 48.75 20.3627 50 24.9871 50C39.0853 50 50.7838 37.5752 49.9589 23.5255ZM37.2105 34.3003C36.9856 34.7503 36.7106 35.1753 36.3607 35.5753C35.7357 36.2503 35.0608 36.7503 34.3109 37.0503C33.561 37.3753 32.7361 37.5252 31.8612 37.5252C30.5864 37.5252 29.2116 37.2255 27.7868 36.6005C26.337 35.9755 24.9121 35.1503 23.4873 34.1253C22.0375 33.0753 20.6877 31.9004 19.3879 30.6254C18.088 29.3254 16.9381 27.9504 15.8883 26.5255C14.8634 25.1005 14.0385 23.6755 13.4386 22.2506C12.8387 20.8256 12.5388 19.4507 12.5388 18.1508C12.5388 17.3008 12.6887 16.4758 12.9887 15.7258C13.2887 14.9508 13.7637 14.2508 14.4386 13.6259C15.2385 12.8259 16.1133 12.4509 17.0382 12.4509C17.3881 12.4509 17.738 12.5258 18.063 12.6758C18.3879 12.8258 18.6879 13.0508 18.9129 13.3758L21.8126 17.4757C22.0375 17.8007 22.2125 18.0757 22.3125 18.3507C22.4375 18.6257 22.4875 18.8757 22.4875 19.1257C22.4875 19.4257 22.3875 19.7257 22.2125 20.0256C22.0375 20.3256 21.8126 20.6256 21.5126 20.9256L20.5627 21.9256C20.4127 22.0756 20.3627 22.2256 20.3627 22.4256C20.3627 22.5255 20.3877 22.6255 20.4127 22.7255C20.4627 22.8255 20.4877 22.9005 20.5127 22.9755C20.7377 23.4005 21.1376 23.9255 21.6876 24.5755C22.2625 25.2255 22.8624 25.9005 23.5123 26.5505C24.1872 27.2255 24.8372 27.8254 25.5121 28.4004C26.162 28.9504 26.7119 29.3254 27.1369 29.5504C27.2118 29.5754 27.2868 29.6254 27.3618 29.6504C27.4618 29.7004 27.5618 29.7004 27.6868 29.7004C27.9118 29.7004 28.0617 29.6254 28.2117 29.4754L29.1616 28.5254C29.4866 28.2004 29.7865 27.9754 30.0615 27.8254C30.3614 27.6504 30.6364 27.5504 30.9614 27.5504C31.2113 27.5504 31.4613 27.6004 31.7363 27.7254C32.0112 27.8504 32.3112 28.0004 32.6111 28.2254L36.7606 31.1754C37.0856 31.4004 37.3105 31.6754 37.4605 31.9754C37.5855 32.3004 37.6605 32.6003 37.6605 32.9503C37.5105 33.3753 37.4105 33.8503 37.2105 34.3003Z" fill="white"/>
</g>
</svg>
