<svg width="50" height="50" viewBox="0 0 50 50" fill="none" xmlns="http://www.w3.org/2000/svg">
<g id="&#240;&#159;&#166;&#134; icon &#34;call calling&#34;">
<g id="Group">
<path id="Vector" d="M39.052 21.8799C37.9769 21.8799 37.1269 21.0048 37.1269 19.9547C37.1269 19.0296 36.2018 17.1045 34.6518 15.4295C33.1267 13.8044 31.4516 12.8543 30.0516 12.8543C28.9765 12.8543 28.1265 11.9793 28.1265 10.9292C28.1265 9.87919 29.0015 9.00415 30.0516 9.00415C32.5517 9.00415 35.1768 10.3542 37.4769 12.7793C39.627 15.0544 41.0021 17.8796 41.0021 19.9297C41.0021 21.0048 40.127 21.8799 39.052 21.8799Z" fill="white"/>
<path id="Vector_2" d="M48.0768 21.876C47.0018 21.876 46.1517 21.001 46.1517 19.9509C46.1517 11.0755 38.9264 3.87518 30.076 3.87518C29.0009 3.87518 28.1509 3.00014 28.1509 1.95009C28.1509 0.900042 29.0009 0 30.051 0C41.0515 0 50.0019 8.95042 50.0019 19.9509C50.0019 21.001 49.1269 21.876 48.0768 21.876Z" fill="white"/>
<path id="Vector_3" d="M22.6261 32.3765L18.0008 37.0017C17.0258 37.9768 15.4757 37.9768 14.4757 37.0267C14.2007 36.7517 13.9257 36.5017 13.6506 36.2267C11.0755 33.6266 8.75041 30.9014 6.67531 28.0513C4.62522 25.2012 2.97514 22.351 1.77508 19.5259C0.600028 16.6758 0 13.9507 0 11.3505C0 9.65045 0.300014 8.02538 0.900042 6.52531C1.50007 5.00023 2.45011 3.60017 3.77518 2.35011C5.37525 0.775036 7.12533 0 8.97542 0C9.67545 0 10.3755 0.150007 11.0005 0.450021C11.6505 0.750035 12.2256 1.20006 12.6756 1.85009L18.4759 10.0255C18.9259 10.6505 19.2509 11.2255 19.4759 11.7756C19.7009 12.3006 19.8259 12.8256 19.8259 13.3006C19.8259 13.9007 19.6509 14.5007 19.3009 15.0757C18.9759 15.6507 18.5009 16.2508 17.9008 16.8508L16.0007 18.8259C15.7257 19.1009 15.6007 19.4259 15.6007 19.8259C15.6007 20.0259 15.6257 20.2009 15.6757 20.401C15.7507 20.601 15.8257 20.751 15.8757 20.901C16.3258 21.726 17.1008 22.8011 18.2009 24.1011C19.3259 25.4012 20.526 26.7263 21.826 28.0513C22.076 28.3013 22.351 28.5513 22.6011 28.8013C23.6011 29.7764 23.6261 31.3765 22.6261 32.3765Z" fill="white"/>
<path id="Vector_4" d="M49.9264 40.825C49.9264 41.525 49.8014 42.2501 49.5514 42.9501C49.4764 43.1501 49.4014 43.3501 49.3014 43.5501C48.8764 44.4502 48.3263 45.3002 47.6013 46.1002C46.3763 47.4503 45.0262 48.4253 43.5011 49.0504C43.4761 49.0504 43.4511 49.0754 43.4261 49.0754C41.951 49.6754 40.351 50.0004 38.6259 50.0004C36.0758 50.0004 33.3506 49.4004 30.4755 48.1753C27.6004 46.9503 24.7252 45.3002 21.8751 43.2251C20.9001 42.5001 19.925 41.775 19 41L27.1754 32.8246C27.8754 33.3496 28.5004 33.7497 29.0254 34.0247C29.1504 34.0747 29.3005 34.1497 29.4755 34.2247C29.6755 34.2997 29.8755 34.3247 30.1005 34.3247C30.5255 34.3247 30.8505 34.1747 31.1255 33.8997L33.0256 32.0246C33.6507 31.3995 34.2507 30.9245 34.8257 30.6245C35.4007 30.2745 35.9758 30.0995 36.6008 30.0995C37.0758 30.0995 37.5758 30.1995 38.1259 30.4245C38.6759 30.6495 39.2509 30.9745 39.876 31.3995L48.1513 37.2748C48.8014 37.7248 49.2514 38.2499 49.5264 38.8749C49.7764 39.4999 49.9264 40.125 49.9264 40.825Z" fill="white"/>
</g>
</g>
</svg>
