<svg width="50" height="50" viewBox="0 0 50 50" fill="none" xmlns="http://www.w3.org/2000/svg">
<path id="Vector" d="M0 23.8688V21.7812L16.6595 35.9443L0.217779 48.4701C0.0753147 48.1541 0.00119521 47.813 0 47.468V23.8629V23.8688ZM34.316 21.4382C34.291 22.2914 34.1507 23.1377 33.8988 23.9553C33.6763 24.6671 33.3252 25.3346 32.862 25.9267C32.4394 26.4749 31.8897 26.9184 31.2575 27.2211C30.6253 27.5237 29.9285 27.677 29.2239 27.6683C28.9242 27.6705 28.6254 27.6364 28.3344 27.5669C28.0547 27.5035 27.7854 27.4032 27.5337 27.2687C27.2904 27.1368 27.0682 26.971 26.8742 26.7766C26.7691 26.6729 26.6727 26.5612 26.5859 26.4426C26.2392 26.8308 25.8081 27.1392 25.3237 27.3456C24.8393 27.5519 24.3139 27.6509 23.7853 27.6355C23.4281 27.6382 23.0728 27.5848 22.7331 27.4775C22.401 27.3671 22.09 27.2038 21.8129 26.9943C21.5336 26.7781 21.2922 26.5193 21.0982 26.2279C20.8834 25.9112 20.7151 25.5669 20.5982 25.2049C20.3457 24.3777 20.2675 23.5094 20.3681 22.652C20.463 21.8232 20.6693 21.0101 20.9816 20.2334C21.2634 19.5359 21.6625 18.8889 22.1626 18.3187C22.6228 17.7886 23.1937 17.3595 23.8374 17.0602C24.4659 16.7821 25.1501 16.6435 25.8405 16.6546C26.3577 16.6497 26.8734 16.7108 27.3742 16.8365C27.8441 16.9557 28.2914 17.147 28.6994 17.4031L29.3834 17.8445C29.4226 17.8716 29.4539 17.9081 29.4744 17.9504C29.4948 17.9928 29.5036 18.0395 29.5 18.0861L28.9172 24.1671C28.8504 24.4701 28.8937 24.7863 29.0399 25.0618C29.118 25.1515 29.2176 25.221 29.33 25.2642C29.4424 25.3073 29.564 25.3229 29.6841 25.3093C29.9281 25.3079 30.1646 25.227 30.3558 25.0797C30.6152 24.8706 30.8246 24.609 30.9693 24.3132C31.1775 23.9275 31.3312 23.5162 31.4264 23.0905C31.5409 22.5785 31.6067 22.0574 31.6227 21.5337C31.6933 20.5229 31.6011 19.5076 31.3497 18.5245C31.1406 17.7185 30.7462 16.969 30.1963 16.3325C29.669 15.733 28.9979 15.2689 28.2423 14.9815C27.376 14.665 26.456 14.5102 25.5307 14.5252C24.9013 14.5215 24.2745 14.6038 23.6687 14.7698C23.0901 14.9334 22.5392 15.1785 22.0337 15.4974C21.5133 15.8273 21.0452 16.2291 20.6442 16.6904C20.2211 17.1766 19.8644 17.7139 19.5828 18.2889C19.2764 18.9077 19.0389 19.5566 18.8742 20.2245C18.7032 20.9485 18.6006 21.6862 18.5675 22.4284C18.4968 23.4796 18.5888 24.5352 18.8405 25.5598C19.0463 26.3907 19.4426 27.1656 20 27.8264C20.5339 28.4404 21.2186 28.9134 21.9908 29.2013C22.8958 29.5293 23.8564 29.6881 24.8221 29.6695C25.1296 29.6696 25.4368 29.6527 25.7423 29.6188C26.0628 29.5856 26.3813 29.5359 26.6963 29.4697C27.0031 29.4041 27.3098 29.3354 27.5828 29.2579C27.8248 29.1888 28.0624 29.1061 28.2945 29.0104C28.3596 28.9835 28.433 28.9829 28.4985 29.0086C28.5641 29.0344 28.6165 29.0843 28.6442 29.1476C28.6473 29.1703 28.6473 29.1934 28.6442 29.2161L29.0675 30.925C29.0778 30.9773 29.0723 31.0313 29.0516 31.0805C29.0309 31.1298 28.9959 31.1721 28.9509 31.2024C28.6879 31.367 28.4071 31.503 28.1135 31.608C27.7772 31.7328 27.4317 31.8325 27.0798 31.9062C26.3296 32.0833 25.5603 32.1724 24.7883 32.1716C23.0197 32.2256 21.2665 31.8375 19.6963 31.0443C19.0073 30.6781 18.3854 30.2034 17.8558 29.6396C17.3219 29.0612 16.886 28.4038 16.5644 27.6922C16.2155 26.9201 15.9722 26.107 15.8405 25.2735C15.6852 24.3141 15.6307 23.3418 15.6779 22.3717C15.7137 21.4304 15.8536 20.4955 16.0951 19.5832C16.3223 18.7182 16.6538 17.8824 17.0828 17.093C17.4878 16.3491 17.9944 15.6619 18.589 15.0501C19.1708 14.4439 19.838 13.9208 20.5705 13.4963C21.3094 13.0707 22.1053 12.7466 22.9356 12.533C23.7976 12.3127 24.6853 12.2014 25.5767 12.202C27.2539 12.161 28.9127 12.5498 30.3865 13.3293C31.0546 13.6964 31.6591 14.1633 32.1779 14.7131C32.6903 15.2706 33.1132 15.8999 33.4325 16.58C33.7796 17.3049 34.0271 18.0709 34.1687 18.8585C34.3224 19.7108 34.377 20.5771 34.3313 21.4412L34.316 21.4382ZM23.5798 22.658C23.5429 23.0349 23.5429 23.4144 23.5798 23.7913C23.6014 24.0588 23.6688 24.3208 23.7791 24.5667C23.856 24.7301 23.9768 24.8702 24.1288 24.9723C24.2583 25.0492 24.4053 25.0938 24.5567 25.1021C24.7082 25.1104 24.8594 25.0822 24.9969 25.02C25.1342 24.9513 25.2578 24.8594 25.362 24.7486C25.4976 24.6043 25.614 24.444 25.7086 24.2715C25.824 24.0665 25.9206 23.8519 25.9969 23.6302L26.4172 19.1568H26.3466C26.2446 19.148 26.1419 19.148 26.0399 19.1568C25.7146 19.1511 25.3923 19.2185 25.0981 19.3536C24.8205 19.4933 24.5833 19.6984 24.408 19.9501C24.1817 20.2878 24.012 20.6582 23.9049 21.0475C23.7552 21.5809 23.6526 22.1256 23.5982 22.6759L23.5798 22.658ZM0.088969 17.6924C0.444797 16.3355 2.42023 15.4676 3.51533 14.7101V8.89754C3.51533 8.25054 3.77969 7.63005 4.25026 7.17255C4.72082 6.71504 5.35906 6.45802 6.02454 6.45802H15.4264L24.3988 0.24286C24.6273 0.0848956 24.9006 0 25.181 0C25.4613 0 25.7347 0.0848956 25.9632 0.24286L34.7822 6.45205H43.9847C44.3142 6.45205 44.6405 6.51515 44.9449 6.63775C45.2493 6.76035 45.5259 6.94005 45.7589 7.16658C45.9919 7.39311 46.1768 7.66205 46.3029 7.95803C46.429 8.25401 46.4939 8.57124 46.4939 8.89161V14.6863C47.6748 15.5004 49.9846 16.6069 49.9846 18.1398V18.2024L43.997 23.1203V8.88265H6.02147V22.7117L0.088969 17.6924ZM50 22.2912V47.4829C50.0001 48.067 49.7895 48.6327 49.4049 49.0814L32.7822 36.3767L50 22.2912ZM45.3988 49.991H3.45706L19.1258 38.0617L23.7884 42.0282C24.0878 42.2807 24.4727 42.4167 24.869 42.4101C25.2654 42.4035 25.6452 42.2548 25.9356 41.9925L30.2515 38.4554L45.3497 50L45.3988 49.991Z" fill="white"/>
</svg>
